<svg id="SvgjsSvg1117" width="360" height="360" xmlns="http://www.w3.org/2000/svg" version="1.1" xmlns:xlink="http://www.w3.org/1999/xlink" xmlns:svgjs="http://svgjs.com/svgjs"><defs id="SvgjsDefs1118"></defs><g id="SvgjsG1119"><svg xmlns="http://www.w3.org/2000/svg" enable-background="new 0 0 1080 1080" viewBox="0 0 1080 1080" width="360" height="360"><rect width="907" height="436" x="87" y="149" fill="#f7f7f7" class="colorf7f7f7 svgShape"></rect><path fill="#e3e7ea" d="M963.03,398.16v95.1h-7.89v33.66h-19.73V507.9h-23.55v-11.48h27.49v-6.31h-27.49v-15.13h-3.4v15.13h-5.4v3.15		h-6.32v-17.55h-13.41v17.55h-22.1v17.56h-24.46v-27.8h-3.95v-20.48H829v-31.96h34.6v-6.31H829v-4.16h-3.4v4.16h-12.5v6.31h12.5
		v31.96h-16.45v40.97H761.8v-30.73h-4.61v-10.01h19.61v-6.31h-19.61v-2.78h-3.4v2.78h-3.04v6.31h3.04v10.01h-14.08v17.33h-24.47
		v6.31h10.53v10.01h-15.26v14.63h-7.1v-7.31h-7.1V398.16h-4.74V380.6h-14.99v136.07h-28.41V380.6h-11.84v11.71h-6.31v92.17h-10.26
		v24.88h-4.73v-24.88H595.3v-16.09h-8.68v-19.02h-7.89v-42.43H566.1v16.09h-31.56v61.45h-16.58V464h-19.72v-40.97h-48.93v48.29
		h-7.61v13.16h-5.01v-83.39h-5.53V380.6h-9.47v17.56h-10.26v70.23h-4.73v16.09h-5.52v-49.74h-38.67v40.97h-12.63v17.55h-7.1v10.25
		h-7.1V491.8l-4.34-8.04v-18.29H312v42.43h-7.1v-10.25h-7.89V380.6h-6.31v-32.18h-7.1v-16.1h-9.47V319h-14.21v23.56h-7.89v24.88
		h-4.73v86.24h-8.68v-16.01h-11.05v23.41h-12.63v-67.31l-4.73-8.78v-30.72h-26.04v21.94h-13.42v43.9h-6.31v-8.78h-7.89l-4.74,8.78
		l-2.05,3.8v101.54h-8.99V424.5h-7.9v-10.25h-11.83v16.1h-11.05v26.11h-6.19v-11.48h-3.4v11.48H85.53v6.31h14.87v33.42h-1.46v27.8
		H87V585h907V398.16H963.03z M109.99,471.32h-5.52v24.87h-0.67v-33.42h6.19V471.32z M739.71,506.43h-10.53v-10.01h10.53V506.43z
		 M908.46,507.9h-5.4v-11.48h5.4V507.9z" class="colorf2f2f2 svgShape"></path><polygon fill="#d8e1e7" points="355 585 192 585 501 149 664 149" class="colorfff svgShape"></polygon><polygon fill="none" stroke="#d8e1e7" stroke-miterlimit="10" points="537 585 456 585 765 149 846 149" class="colorStrokefff svgStroke"></polygon><path fill="#e3e7ea" d="M1018.91,971H61.09c-5.74,0-10.43-4.69-10.43-10.43v-46.49c0-5.74,4.69-10.43,10.43-10.43h957.82
	c5.74,0,10.43,4.69,10.43,10.43v46.49C1029.34,966.31,1024.65,971,1018.91,971z" class="colorf2f2f2 svgShape"></path><g fill="#000000" class="color000 svgShape"><polygon fill="#00478f" points="428.63 719.41 319.37 736 312 729 312 641 433.89 641 447 648.46" class="color0e538c svgShape"></polygon><rect width="127.63" height="87.54" x="319.37" y="648.46" fill="#2a231f" class="colorcce9ff svgShape"></rect><path fill="#00478f" d="M393.82,643.86h-38.68v-18.43c0-10.16,8.68-18.43,19.34-18.43c10.66,0,19.34,8.27,19.34,18.43V643.86z
				 M359.98,639.25h29.01v-13.82c0-7.62-6.51-13.82-14.5-13.82c-8,0-14.5,6.2-14.5,13.82V639.25z" class="color0e538c svgShape"></path><polygon fill="#2a94f4" points="447 698 394 698 319 698 319 648 447 648" class="color2a94f4 svgShape"></polygon><rect width="48" height="24" x="365" y="686" fill="#2a94f4" class="color2a94f4 svgShape"></rect><path fill="#fcd2b1" d="M768 298l12-24 14-5 4-29-28 6c0 0 1-16-3-18-3 8-7 21-7 21s2 18 2 23c-2 5-15 18-15 18L768 298zM365.73 585c0 0-9.17 26.81-6.73 33s28.29 8.99 28.29 8.99L390 606l-10.22-21H365.73z" class="colorfcd2b1 svgShape"></path><polygon fill="#0a3951" points="601.29 935.61 662.55 955.49 587.97 955.49 587.97 935.61" class="color0a3951 svgShape"></polygon><polygon fill="#0a3951" points="449.47 935.61 505.41 955.49 431.48 955.49 435.27 935.61" class="color0a3951 svgShape"></polygon><path fill="#083047" d="M567.29,533.36l41.46,411.31h-24.93c0,0-49.81-178.67-39.81-213.67c-6.36-28.32-46.55-122.49-37.19-134.47
		c9.36-11.98,26.5-74.5,26.5-74.5L567.29,533.36z" class="color083047 svgShape"></path><path fill="#0a3951" d="M560.87,539.58l-20.1,27.68l-82.88,377.41h-26.33c0,0,4.57-189.77,23.44-213.67
		c7.55-42.77,5.49-191.42,19.33-201.48c25.16-1.26,81.8-11.32,81.8-11.32L560.87,539.58z" class="color0a3951 svgShape"></path><path fill="#d8e1e7" d="M565,324l-4,207l-56-5l-6-212c8.23-0.77,37.16-0.21,43-1L565,324z" class="colorfff svgShape"></path><path fill="#00478f" d="M505.78,206.65c-11.58,12.18-14.34,37.55-6.85,49.72c7.49,12.17,23.62,17.29,30.37,23.59
			c9.96-15.55,25.2-27,25.2-27l-12.64-34.16l-17.46-6.15L505.78,206.65z" class="color0e538c svgShape"></path><polygon fill="#fcd2b1" points="556.13 283.95 556.13 314.69 544.31 332.42 515.93 306.12 527.17 251.67" class="colorfcd2b1 svgShape"></polygon><path fill="#ffe3ca" d="M588.05,207.02c1.35,39.15,9.15,82.26,5.2,88.72c-3.95,6.46-50.88,12.36-58.96-4.5
			c-8.08-16.86-28.79-58.34-18.97-75.07C525.14,199.45,588.05,207.02,588.05,207.02z" class="colorffe3ca svgShape"></path><path fill="#00478f" d="M532.19,217.62c3.53,9.09,1.39,26.98-7.7,30.51c0.68,5.41,2.67,15.6,3.55,20.01c0.24,1.2-0.52,2.37-1.72,2.64
			c-2.74,0.62-5.13,1.48-5.24,0.67c-0.15-1.17-13.53-50.73-13.53-50.73L532.19,217.62z" class="color0e538c svgShape"></path><ellipse cx="516.95" cy="257.85" fill="#ffe3ca" rx="7.89" ry="10.93" transform="rotate(-22.184 516.949 257.847)" class="colorffe3ca svgShape"></ellipse><polygon fill="#00478f" points="523.17 247.11 527 268.07 523.28 269.98 517.25 240.95" class="color0e538c svgShape"></polygon><polygon fill="#e3e7ea" points="544.31 332.42 531.93 350.12 506.81 311.89 515.93 306.12" class="colorf2f2f2 svgShape"></polygon><polygon fill="#e3e7ea" points="544.31 332.42 548.16 350.12 560.87 322.94 556.13 314.69" class="colorf2f2f2 svgShape"></polygon><path fill="#ff5d00" d="M546.9,344.32l-2.59,7.23l12.74,124.13c0,0-11.97,31.85-13.04,28.33s-17.52-31.19-17.52-31.19l10.8-121.08
		l-1.25-7.48l8.28-11.83L546.9,344.32z" class="colorffbe55 svgShape"></path><g fill="#000000" class="color000 svgShape"><path fill="#00478f" d="M507.14,219.77c-5.02-2.8-6.19-10.01-3.75-15.22c2.44-5.21,7.51-8.68,12.7-11.15
			c8.14-3.87,17.14-5.91,26.15-5.92c4.22,0,8.44,0.43,12.64-0.02c4.19-0.45,8.47-1.9,11.29-5.04c2.82-3.13,3.72-8.21,1.25-11.63
			c8.84,5.17,16.98,11.55,24.12,18.89c0.87-4.6,0.25-9.46-1.73-13.7c3.89,4.73,7.82,9.51,10.54,14.99
			c2.73,5.48,4.19,11.81,2.86,17.79c-1.84,8.27-8.82,14.66-16.65,17.89c-7.83,3.23-16.48,3.78-24.95,3.98
			c-9.52,0.22-19.16,0.04-28.39-2.32c-9.23-2.36-16.37-0.81-22.22-8.32L507.14,219.77z" class="color0e538c svgShape"></path></g><g fill="#000000" class="color000 svgShape"><path fill="#00478f" d="M556.36 268.9l-1.14.08c-7.44.53-13.91-5.07-14.44-12.51l-.67-9.35 28.09-2.01.67 9.35C569.4 261.91 563.8 268.37 556.36 268.9zM588.86 266.49L588.86 266.49c-6.31.45-11.8-4.3-12.25-10.62l-.81-11.39 22.86-1.63.81 11.39C599.92 260.55 595.17 266.04 588.86 266.49z" class="color0e538c svgShape"></path><rect width="14.04" height="4" x="564.98" y="247.5" fill="#00478f" transform="rotate(-4.088 571.851 249.441)" class="color0e538c svgShape"></rect><polygon fill="#00478f" points="542 256 514.74 245.97 515.26 244.03 541.94 248.51" class="color0e538c svgShape"></polygon></g><path fill="#00478f" d="M507 312c0 0-53 12-69 20s-87 117-77 262c12 0 33-9 33-9s-15-157 66-189c1 41-23 198-23 198l80.25-9.06L507 312zM561 322l-4 263 28 9-6-210c0 0 138 26 198-97-9-2-27-4-27-4s-83 90-171 45C568 323 561 322 561 322z" class="color0e538c svgShape"></path></g><g fill="#000000" class="color000 svgShape"><path fill="#ff5d00" d="M928.79,932.01c25.19,0,35.83-20.12,40.01-41.46c4.73-24.08,1.26-49.71,1.26-49.71h-82.54
		c0,0-0.13,0.98-0.31,2.72C885.67,858.72,880.7,932.01,928.79,932.01z" class="colorb6e7ff svgShape"></path><path fill="#2a231f" d="M887.52,840.84c0,1.8,18.48,3.26,41.27,3.26c22.79,0,41.27-1.46,41.27-3.26c0-1.8-18.48-3.26-41.27-3.26
		C905.99,837.58,887.52,839.04,887.52,840.84z" class="color85ddff svgShape"></path><path fill="#2a94f4" d="M817.03,612.01c0,0,43.53,66.22,69.64,106.64s32.96,48.81,36.07,61.87c3.11,13.06,5.91,61.25,5.91,61.25h1.93
		c0,0-0.67-40.9-3.03-54.67c-2.28-13.31,0.16-18.08,2.03-32.07c1.87-13.99,4.35-36.38-9.79-51.92
		c-14.15-15.55-10.42-30.78-15.39-41.04c-4.98-10.26-43.53-22.7-48.5-33.27C850.91,618.23,829.15,611.7,817.03,612.01z" class="color2a94f4 svgShape"></path><path fill="#41aaf7" d="M817.03,612.01c0,0,13.68,15.55,23.01,20.83c9.33,5.28,13.68,0.62,20.83,13.37
		c7.15,12.75,7.43,18.34,13.97,24.87c6.55,6.53,14.32,6.84,14.94,21.14c0.62,14.3-3.11,26.43-3.11,26.43
		S819.82,615.43,817.03,612.01z" class="color41aaf7 svgShape"></path><path fill="#2a94f4" d="M925.2,841.78h-1.95c0,0-0.58-13.24-5.84-19.67c-3.39-4.15-17.8-8.86-32.04-14.5
		c-7.84-3.11-15.64-6.5-21.51-10.24c-16.56-10.52-32.34-44.41-33.69-50.45c-0.48-2.1-0.69-3.38-0.68-4.25v-0.02
		c0.04-1.62,0.84-1.87,2.23-3.51c0.67-0.79,2.69-0.52,5.15,0.23c7.14,2.18,13.17,7.07,16.9,13.53c3.45,5.98,8.97,13.45,15.73,15.26
		c11.69,3.12,10.72,5.06,15.03,16.95c4.3,11.89,15.17,13.83,28.8,27.85C926.95,826.97,925.2,841.78,925.2,841.78z" class="color2a94f4 svgShape"></path><path fill="#41aaf7" d="M885.36,807.6c-7.84-3.11-15.64-6.5-21.51-10.24c-16.56-10.52-32.34-44.41-33.69-50.45
		c-0.48-2.1-0.69-3.38-0.68-4.25c0.05,0.4,0.82,5.76,9.44,9.33c8.95,3.69,10.71,3.69,11.87,9.35c1.17,5.64,2.15,11.69,6.82,12.86
		c4.67,1.17,7.6-4.09,11.29,4.48c3.7,8.57,5.47,11.49,8.87,12.66c3.4,1.17,5.98-0.58,6.74,6.04
		C884.97,801.41,885.23,805.24,885.36,807.6z" class="color41aaf7 svgShape"></path><path fill="#2a94f4" d="M939.51,841.78h2.31c0,0,4.52-81.99,10.74-89.6c4.01-4.91,17.26-13.72,34.13-20.4
		c9.29-3.68,18.52-7.7,25.48-12.12c19.61-12.46,38.3-52.6,39.9-59.75c0.57-2.49,0.82-4,0.8-5.04v-0.03c-0.04-1.92-1-2.21-2.64-4.15
		c-0.79-0.94-3.18-0.61-6.1,0.27c-8.46,2.58-15.59,8.37-20.02,16.03c-4.09,7.08-10.63,15.93-18.64,18.07
		c-13.84,3.7-12.69,5.99-17.8,20.07c-5.09,14.08-17.97,16.37-34.1,32.98C937.43,754.71,939.51,841.78,939.51,841.78z" class="color2a94f4 svgShape"></path><path fill="#41aaf7" d="M986.69,731.77c9.29-3.68,18.52-7.7,25.48-12.12c19.61-12.46,38.3-52.6,39.9-59.75c0.57-2.49,0.82-4,0.8-5.04
		c-0.06,0.47-0.97,6.82-11.18,11.05c-10.6,4.37-12.68,4.37-14.06,11.07c-1.38,6.69-2.55,13.84-8.08,15.23
		c-5.54,1.38-9-4.84-13.37,5.3c-4.39,10.15-6.48,13.61-10.5,14.99c-4.03,1.38-7.09-0.69-7.99,7.16
		C987.15,724.44,986.84,728.98,986.69,731.77z" class="color41aaf7 svgShape"></path><path fill="#2a231f" d="M928.79,932.01c25.19,0,35.83-20.12,40.01-41.46c-24.69-9.36-55.79-24.37-81.59-46.99
			C885.67,858.72,880.7,932.01,928.79,932.01z" class="colorcce9ff svgShape"></path></g><g fill="#000000" class="color000 svgShape"><path fill="#ff5d00" d="M109.72,934.67c13.91,0,19.78-11.11,22.09-22.89c2.61-13.29,0.69-27.44,0.69-27.44H86.94
		c0,0-0.07,0.54-0.17,1.5C85.92,894.2,83.17,934.67,109.72,934.67z" class="colorb6e7ff svgShape"></path><path fill="#2a231f" d="M86.94,884.33c0,1,10.2,1.8,22.79,1.8c12.58,0,22.79-0.81,22.79-1.8c0-1-10.2-1.8-22.79-1.8
		C97.14,882.53,86.94,883.34,86.94,884.33z" class="color85ddff svgShape"></path><path fill="#2a94f4" d="M35,733.01c0,0,28.77,43.76,46.02,70.48s21.78,32.26,23.83,40.89c2.06,8.63,3.9,40.48,3.9,40.48h2.26
		c0,0,1.44-26.92-1.23-35.75c-2.67-8.83-1.64-12.33-0.41-21.57c1.23-9.25,2.88-24.04-6.47-34.31c-9.35-10.27-6.88-20.34-10.17-27.12
		c-3.29-6.78-28.77-15-32.05-21.98C57.4,737.12,43.01,732.8,35,733.01z" class="color2a94f4 svgShape"></path><path fill="#41aaf7" d="M41.29,733.01c0,0,9.04,10.27,15.2,13.77c6.16,3.49,9.04,0.41,13.77,8.83c4.73,8.42,4.91,12.12,9.23,16.44
		c4.33,4.31,9.46,4.52,9.87,13.97c0.41,9.45-2.05,17.46-2.05,17.46S43.14,735.27,41.29,733.01z" class="color41aaf7 svgShape"></path><path fill="#2a94f4" d="M118.33,884.33l1.65-0.49c0,0-2.86-11.32-0.04-18.08c1.81-4.36,12.78-11.98,23.38-20.35
		c5.83-4.61,11.56-9.44,15.57-14.08c11.32-13.07,16.06-45.67,15.68-51.11c-0.13-1.9-0.27-3.03-0.5-3.76l-0.01-0.02
		c-0.44-1.36-1.18-1.37-2.77-2.39c-0.76-0.5-2.4,0.24-4.29,1.5c-5.48,3.64-9.33,9.29-10.84,15.7c-1.4,5.92-4.17,13.62-9.42,16.86
		c-9.08,5.59-7.77,6.98-8.4,18.11c-0.62,11.12-9.31,15.51-17.26,30.79C113.11,872.28,118.33,884.33,118.33,884.33z" class="color2a94f4 svgShape"></path><path fill="#41aaf7" d="M143.32,845.41c5.83-4.61,11.56-9.44,15.57-14.08c11.32-13.07,16.06-45.67,15.68-51.11
		c-0.13-1.9-0.27-3.03-0.5-3.76c0.06,0.35,0.77,5.07-5.61,10.26c-6.62,5.38-8.1,5.83-7.66,10.9c0.44,5.06,1.14,10.41-2.51,12.58
		c-3.65,2.17-7.45-1.53-8.4,6.63c-0.96,8.17-1.71,11.08-4.29,12.93c-2.58,1.85-5.2,1.02-4.16,6.81
		C142.08,840.08,142.83,843.38,143.32,845.41z" class="color41aaf7 svgShape"></path><path fill="#2a231f" d="M109.72,934.67c13.91,0,19.78-11.11,22.09-22.89c-13.63-5.17-30.8-13.46-45.04-25.94
			C85.92,894.2,83.17,934.67,109.72,934.67z" class="colorcce9ff svgShape"></path></g></svg></g></svg>