<svg id="SvgjsSvg1001" width="288" height="288" xmlns="http://www.w3.org/2000/svg" version="1.1" xmlns:xlink="http://www.w3.org/1999/xlink" xmlns:svgjs="http://svgjs.com/svgjs"><defs id="SvgjsDefs1002"></defs><g id="SvgjsG1008" transform="matrix(1,0,0,1,0,0)"><svg xmlns="http://www.w3.org/2000/svg" width="288" height="288" viewBox="0 0 16 16"><g transform="translate(0 -1036.362)" fill="#2a231f" class="color000 svgShape"><path fill="#00478f" fill-rule="evenodd" style="line-height:normal;text-indent:0;text-align:start;text-decoration-line:none;text-decoration-style:solid;text-decoration-color:#000;text-transform:none;block-progression:tb;white-space:normal;isolation:auto;mix-blend-mode:normal;solid-color:#000;solid-opacity:1" d="m 11.675781,1040.1719 a 0.50004994,0.50004994 0 0 0 -0.34375,0.1523 l -8.6855466,8.6836 a 0.50004994,0.50004994 0 1 0 0.7070312,0.707 l 8.6855464,-8.6836 a 0.50004994,0.50004994 0 0 0 -0.363281,-0.8593 z" color="#000" enable-background="accumulate" font-family="sans-serif" font-weight="400" overflow="visible" class="color2b4255 svgShape"></path><path fill="#ff5d00" style="line-height:normal;text-indent:0;text-align:start;text-decoration-line:none;text-decoration-style:solid;text-decoration-color:#000;text-transform:none;block-progression:tb;white-space:normal;isolation:auto;mix-blend-mode:normal;solid-color:#000;solid-opacity:1" d="m 13.563468,1038.7992 c -0.581596,-0.5816 -1.539725,-0.5816 -2.121321,0 -0.581602,0.5816 -0.581595,1.5398 0,2.1214 0.581603,0.5816 1.539725,0.5816 2.121321,0 0.581595,-0.5816 0.581588,-1.5398 0,-2.1214 z m -0.707107,0.7071 c 0.199446,0.1995 0.199446,0.5077 0,0.7072 -0.199447,0.1994 -0.50766,0.1994 -0.707107,0 -0.199446,-0.1995 -0.199453,-0.5077 0,-0.7072 0.199447,-0.1994 0.50766,-0.1994 0.707107,0 z" color="#000" enable-background="accumulate" font-family="sans-serif" font-weight="400" overflow="visible" class="colorf05542 svgShape"></path><path fill="#00478f" style="line-height:normal;text-indent:0;text-align:start;text-decoration-line:none;text-decoration-style:solid;text-decoration-color:#000;text-transform:none;block-progression:tb;white-space:normal;isolation:auto;mix-blend-mode:normal;solid-color:#000;solid-opacity:1" d="m 3.9291378,1040.6112 a 0.50004994,0.50004994 0 0 0 -0.7637319,0.1257 c -1.5093477,2.5256 -1.2001652,5.6803 0.7899727,7.6704 1.9901449,1.9902 5.1448594,2.2994 7.6704464,0.79 a 0.50004994,0.50004994 0 1 0 -0.512376,-0.8576 c -2.161463,1.2917 -4.7976702,1.0138 -6.4509637,-0.6395 -1.6532934,-1.6533 -1.9311652,-4.2895 -0.6394366,-6.4509 a 0.50004994,0.50004994 0 0 0 -0.093911,-0.6381 z" color="#000" enable-background="accumulate" font-family="sans-serif" font-weight="400" overflow="visible" class="color2b4255 svgShape"></path><path fill="#00478f" style="line-height:normal;text-indent:0;text-align:start;text-decoration-line:none;text-decoration-style:solid;text-decoration-color:#000;text-transform:none;block-progression:tb;white-space:normal;isolation:auto;mix-blend-mode:normal;solid-color:#000;solid-opacity:1" d="m 3.3988077,1048.9998 a 0.50004994,0.50004994 0 0 0 0.7885938,-0.1588 c 0.3097057,-0.6398 0.1810405,-1.4041 -0.2334018,-2.0343 a 0.50004994,0.50004994 0 1 0 -0.8341668,0.5496 c 0.2596072,0.3948 0.284568,0.8056 0.1671035,1.0483 a 0.50004994,0.50004994 0 0 0 0.1118713,0.5952 z" color="#000" enable-background="accumulate" font-family="sans-serif" font-weight="400" overflow="visible" class="color2b4255 svgShape"></path><path fill="#00478f" style="line-height:normal;text-indent:0;text-align:start;text-decoration-line:none;text-decoration-style:solid;text-decoration-color:#000;text-transform:none;block-progression:tb;white-space:normal;isolation:auto;mix-blend-mode:normal;solid-color:#000;solid-opacity:1" d="m 3.3642797,1048.9625 a 0.50004994,0.50004994 0 0 1 0.1588233,-0.7886 c 0.6397831,-0.3097 1.4027301,-0.1824 2.032932,0.2321 a 0.50004994,0.50004994 0 1 1 -0.5482836,0.8355 c -0.3947565,-0.2596 -0.8055997,-0.2846 -1.0482292,-0.1671 a 0.50004994,0.50004994 0 0 1 -0.5952425,-0.1119 z" color="#000" enable-background="accumulate" font-family="sans-serif" font-weight="400" overflow="visible" class="color2b4255 svgShape"></path><path fill="#ff5d00" fill-rule="evenodd" style="line-height:normal;text-indent:0;text-align:start;text-decoration-line:none;text-decoration-style:solid;text-decoration-color:#000;text-transform:none;block-progression:tb;white-space:normal;isolation:auto;mix-blend-mode:normal;solid-color:#000;solid-opacity:1" d="m 9.0410156,1040.6895 a 0.50004994,0.50004994 0 0 0 -0.3476562,0.8593 l 2.1210936,2.1211 a 0.50004994,0.50004994 0 1 0 0.707031,-0.707 l -2.1210934,-2.1211 a 0.50004994,0.50004994 0 0 0 -0.359375,-0.1523 z" color="#000" enable-background="accumulate" font-family="sans-serif" font-weight="400" overflow="visible" class="colorf05542 svgShape"></path><path fill="#00478f" fill-rule="evenodd" style="line-height:normal;text-indent:0;text-align:start;text-decoration-line:none;text-decoration-style:solid;text-decoration-color:#000;text-transform:none;block-progression:tb;white-space:normal;isolation:auto;mix-blend-mode:normal;solid-color:#000;solid-opacity:1" d="m 3.9589844,1040.1309 a 0.50004994,0.50004994 0 0 0 -0.1328125,0.019 l -0.4824219,0.1289 -0.4824219,0.1289 -0.484375,0.1309 a 0.50004994,0.50004994 0 1 0 0.2597657,0.9648 l 0.4824218,-0.1289 0.4824219,-0.1289 0.484375,-0.1289 a 0.50004994,0.50004994 0 0 0 -0.1269531,-0.9863 z" color="#000" enable-background="accumulate" font-family="sans-serif" font-weight="400" overflow="visible" class="color2b4255 svgShape"></path><path fill="#00478f" fill-rule="evenodd" style="line-height:normal;text-indent:0;text-align:start;text-decoration-line:none;text-decoration-style:solid;text-decoration-color:#000;text-transform:none;block-progression:tb;white-space:normal;isolation:auto;mix-blend-mode:normal;solid-color:#000;solid-opacity:1" d="M3.9746094 1040.1309a.50004994.50004994 0 00-.4921875.6367l.2578125.9668.1289062.4824a.50054777.50054777 0 00.9667969-.2598l-.1289063-.4824-.2597656-.9648a.50004994.50004994 0 00-.4726562-.3789zM11.705078 1047.9004a.50004994.50004994 0 00-.458984.3769l-.128906.4825-.13086.4824-.128906.4844a.50028924.50028924 0 10.966797.2578l.128906-.4824.128906-.4825.128907-.4843a.50004994.50004994 0 00-.50586-.6348z" color="#000" enable-background="accumulate" font-family="sans-serif" font-weight="400" overflow="visible" class="color2b4255 svgShape"></path><path fill="#00478f" fill-rule="evenodd" style="line-height:normal;text-indent:0;text-align:start;text-decoration-line:none;text-decoration-style:solid;text-decoration-color:#000;text-transform:none;block-progression:tb;white-space:normal;isolation:auto;mix-blend-mode:normal;solid-color:#000;solid-opacity:1" d="m 10.255859,1047.5078 a 0.50004994,0.50004994 0 0 0 -0.109375,0.9844 l 0.482422,0.1289 0.482422,0.1309 0.484375,0.1289 a 0.50029236,0.50029236 0 0 0 0.257813,-0.9668 l -0.482422,-0.1289 -0.484375,-0.129 -0.482422,-0.1289 a 0.50004994,0.50004994 0 0 0 -0.148438,-0.019 z" color="#000" enable-background="accumulate" font-family="sans-serif" font-weight="400" overflow="visible" class="color2b4255 svgShape"></path></g></svg></g></svg>