<svg width="283" height="52" viewBox="0 0 283 52" fill="none" xmlns="http://www.w3.org/2000/svg">
<rect y="41" width="10" height="10" fill="#FF5D00"/>
<path d="M16.1172 51L16.1641 45.0703H23.5C25.2969 45.0703 26.8047 44.6719 28.0234 43.875C29.2578 43.0781 30.1875 41.9062 30.8125 40.3594C31.4375 38.8125 31.75 36.9141 31.75 34.6641V33.1641C31.75 30.8984 31.4375 29 30.8125 27.4688C30.1875 25.9375 29.2656 24.7812 28.0469 24C26.8281 23.2188 25.3281 22.8281 23.5469 22.8281H15.9766V16.875H23.5469C26.625 16.875 29.3359 17.5625 31.6797 18.9375C34.0391 20.3125 35.8828 22.2266 37.2109 24.6797C38.5391 27.1172 39.2031 29.9609 39.2031 33.2109V34.6641C39.2031 37.9141 38.5391 40.7656 37.2109 43.2188C35.8828 45.6719 34.0391 47.5859 31.6797 48.9609C29.3359 50.3203 26.6094 51 23.5 51H16.1172ZM20.3125 51H12.9297V16.875H20.3125V51ZM42.6484 38.0859C42.6484 35.6172 43.1172 33.4141 44.0547 31.4766C44.9922 29.5234 46.3594 27.9844 48.1562 26.8594C49.9531 25.7344 52.1328 25.1719 54.6953 25.1719C57.2891 25.1719 59.4844 25.7344 61.2812 26.8594C63.0938 27.9844 64.4609 29.5234 65.3828 31.4766C66.3203 33.4141 66.7891 35.6172 66.7891 38.0859V38.5781C66.7891 41.0312 66.3203 43.2344 65.3828 45.1875C64.4609 47.1406 63.1016 48.6797 61.3047 49.8047C59.5078 50.9141 57.3203 51.4688 54.7422 51.4688C52.1641 51.4688 49.9688 50.9141 48.1562 49.8047C46.3594 48.6797 44.9922 47.1406 44.0547 45.1875C43.1172 43.2344 42.6484 41.0312 42.6484 38.5781V38.0859ZM49.75 38.5781C49.75 39.9062 49.9062 41.1172 50.2188 42.2109C50.5469 43.3047 51.0703 44.1719 51.7891 44.8125C52.5234 45.4531 53.5078 45.7734 54.7422 45.7734C55.9609 45.7734 56.9297 45.4531 57.6484 44.8125C58.3828 44.1719 58.9062 43.3047 59.2188 42.2109C59.5469 41.1172 59.7109 39.9062 59.7109 38.5781V38.0859C59.7109 36.7891 59.5469 35.5938 59.2188 34.5C58.9062 33.3906 58.3828 32.5078 57.6484 31.8516C56.9297 31.1953 55.9453 30.8672 54.6953 30.8672C53.4766 30.8672 52.5 31.1953 51.7656 31.8516C51.0469 32.5078 50.5312 33.3906 50.2188 34.5C49.9062 35.5938 49.75 36.7891 49.75 38.0859V38.5781ZM81.4375 45.7734C82.2344 45.7734 82.9375 45.625 83.5469 45.3281C84.1562 45.0312 84.625 44.6094 84.9531 44.0625C85.2969 43.5156 85.4766 42.8672 85.4922 42.1172H92.1484C92.1328 43.9453 91.6562 45.5625 90.7188 46.9688C89.7812 48.375 88.5156 49.4766 86.9219 50.2734C85.3281 51.0703 83.5391 51.4688 81.5547 51.4688C78.9297 51.4688 76.7422 50.8984 74.9922 49.7578C73.2578 48.6172 71.9531 47.0781 71.0781 45.1406C70.2188 43.2031 69.7891 41.0391 69.7891 38.6484V38.0156C69.7891 35.6094 70.2188 33.4375 71.0781 31.5C71.9531 29.5625 73.2578 28.0234 74.9922 26.8828C76.7422 25.7422 78.9219 25.1719 81.5312 25.1719C83.625 25.1719 85.4609 25.5781 87.0391 26.3906C88.6328 27.1875 89.875 28.3359 90.7656 29.8359C91.6719 31.3203 92.1328 33.1016 92.1484 35.1797H85.4922C85.4766 34.3828 85.3125 33.6641 85 33.0234C84.7031 32.3672 84.25 31.8438 83.6406 31.4531C83.0312 31.0625 82.2812 30.8672 81.3906 30.8672C80.1406 30.8672 79.1875 31.2031 78.5312 31.875C77.8906 32.5469 77.4531 33.4297 77.2188 34.5234C76.9844 35.6016 76.8672 36.7656 76.8672 38.0156V38.6484C76.8672 39.9141 76.9766 41.0938 77.1953 42.1875C77.4297 43.2656 77.875 44.1328 78.5312 44.7891C79.2031 45.4453 80.1719 45.7734 81.4375 45.7734ZM103 51H95.9219V14.9766H103V51ZM108.039 38.3672L102.039 44.3672L99.4375 39.2812L104.195 33.1406L110.477 25.6406H118.984L108.039 38.3672ZM104.359 39.4219L109.281 35.2266L119.734 51H111.602L104.359 39.4219ZM137.102 16.875H141.039L142.094 20.8828L134.922 51H130.656L130.375 46.4766L137.102 16.875ZM132.859 46.5469L132.18 51H127.469L119.969 16.875H127.305L132.859 46.5469ZM153.109 16.875H160.422L152.945 51H148.211L147.625 46.4297L153.109 16.875ZM150.109 46.6172L149.758 51H145.492L138.273 20.8594L139.422 16.875H143.312L150.109 46.6172ZM162.602 38.0859C162.602 35.6172 163.07 33.4141 164.008 31.4766C164.945 29.5234 166.312 27.9844 168.109 26.8594C169.906 25.7344 172.086 25.1719 174.648 25.1719C177.242 25.1719 179.438 25.7344 181.234 26.8594C183.047 27.9844 184.414 29.5234 185.336 31.4766C186.273 33.4141 186.742 35.6172 186.742 38.0859V38.5781C186.742 41.0312 186.273 43.2344 185.336 45.1875C184.414 47.1406 183.055 48.6797 181.258 49.8047C179.461 50.9141 177.273 51.4688 174.695 51.4688C172.117 51.4688 169.922 50.9141 168.109 49.8047C166.312 48.6797 164.945 47.1406 164.008 45.1875C163.07 43.2344 162.602 41.0312 162.602 38.5781V38.0859ZM169.703 38.5781C169.703 39.9062 169.859 41.1172 170.172 42.2109C170.5 43.3047 171.023 44.1719 171.742 44.8125C172.477 45.4531 173.461 45.7734 174.695 45.7734C175.914 45.7734 176.883 45.4531 177.602 44.8125C178.336 44.1719 178.859 43.3047 179.172 42.2109C179.5 41.1172 179.664 39.9062 179.664 38.5781V38.0859C179.664 36.7891 179.5 35.5938 179.172 34.5C178.859 33.3906 178.336 32.5078 177.602 31.8516C176.883 31.1953 175.898 30.8672 174.648 30.8672C173.43 30.8672 172.453 31.1953 171.719 31.8516C171 32.5078 170.484 33.3906 170.172 34.5C169.859 35.5938 169.703 36.7891 169.703 38.0859V38.5781ZM197.875 51H190.797V25.6406H197.453L197.875 31.4766V51ZM205.281 32.2969C204.938 32.25 204.531 32.2109 204.062 32.1797C203.594 32.1328 203.172 32.1094 202.797 32.1094C201.562 32.1094 200.547 32.3047 199.75 32.6953C198.953 33.0703 198.359 33.6328 197.969 34.3828C197.578 35.1328 197.367 36.0625 197.336 37.1719L195.953 36.5625C195.953 34.3594 196.234 32.3984 196.797 30.6797C197.359 28.9609 198.188 27.6172 199.281 26.6484C200.375 25.6641 201.703 25.1719 203.266 25.1719C203.625 25.1719 204 25.1953 204.391 25.2422C204.797 25.2891 205.125 25.3672 205.375 25.4766L205.281 32.2969ZM215.547 51H208.469V14.9766H215.547V51ZM220.586 38.3672L214.586 44.3672L211.984 39.2812L216.742 33.1406L223.023 25.6406H231.531L220.586 38.3672ZM216.906 39.4219L221.828 35.2266L232.281 51H224.148L216.906 39.4219Z" fill="#00478F"/>
<path fill-rule="evenodd" clip-rule="evenodd" d="M274.268 12.7703C273.782 12.7857 273.32 12.9903 272.982 13.3405L240.473 45.8421C240.293 46.0145 240.149 46.2212 240.05 46.4498C239.951 46.6784 239.899 46.9244 239.896 47.1735C239.893 47.4227 239.941 47.6697 240.035 47.9004C240.129 48.1311 240.268 48.3406 240.444 48.5168C240.62 48.693 240.83 48.8325 241.061 48.9266C241.291 49.0207 241.539 49.0677 241.788 49.0651C242.037 49.0624 242.283 49.0101 242.512 48.9111C242.74 48.8121 242.947 48.6684 243.119 48.4885L275.628 15.9868C275.9 15.7242 276.085 15.3852 276.161 15.015C276.236 14.6447 276.198 14.2601 276.051 13.9121C275.904 13.564 275.655 13.2688 275.337 13.065C275.018 12.8612 274.646 12.7584 274.268 12.7703V12.7703Z" fill="#00478F"/>
<path d="M281.334 7.63264C279.157 5.45579 275.571 5.45579 273.394 7.63264C271.217 9.8095 271.217 13.3962 273.394 15.573C275.571 17.7499 279.157 17.7499 281.334 15.573C283.511 13.3962 283.511 9.8095 281.334 7.63264ZM278.687 10.2794C279.434 11.0261 279.434 12.1795 278.687 12.9262C277.941 13.6726 276.787 13.6726 276.04 12.9262C275.294 12.1795 275.294 11.0261 276.04 10.2794C276.787 9.53311 277.941 9.53311 278.687 10.2794Z" fill="#FF5D00"/>
<path d="M245.274 14.4146C245.065 14.2314 244.819 14.0967 244.553 14.0203C244.286 13.9438 244.006 13.9273 243.733 13.9723C243.459 14.0173 243.199 14.1229 242.971 14.2807C242.743 14.4385 242.553 14.645 242.415 14.8852C236.766 24.3382 237.923 36.1459 245.372 43.5946C252.821 51.0437 264.628 52.2007 274.081 46.5512C274.304 46.4317 274.501 46.2682 274.659 46.0705C274.817 45.8728 274.934 45.6452 275.001 45.4012C275.069 45.1572 275.086 44.9018 275.052 44.651C275.019 44.4001 274.934 44.1587 274.804 43.9414C274.675 43.7241 274.502 43.5354 274.297 43.3867C274.092 43.238 273.859 43.1326 273.612 43.0765C273.366 43.0204 273.11 43.0149 272.861 43.0605C272.612 43.1061 272.375 43.2016 272.164 43.3415C264.073 48.1762 254.206 47.1359 248.018 40.9478C241.83 34.7597 240.79 24.8926 245.625 16.8028C245.858 16.4272 245.95 15.9816 245.886 15.5445C245.821 15.1074 245.605 14.7072 245.274 14.4146V14.4146Z" fill="#00478F"/>
<path d="M243.289 45.8118C243.506 46.0084 243.766 46.1512 244.048 46.229C244.331 46.3067 244.627 46.3174 244.914 46.2596C245.201 46.2018 245.471 46.0773 245.701 45.8963C245.931 45.7154 246.116 45.4827 246.24 45.2174C247.399 42.8227 246.918 39.962 245.367 37.6032C245.238 37.3852 245.066 37.1959 244.861 37.0463C244.657 36.8967 244.424 36.7903 244.177 36.7333C243.93 36.6763 243.674 36.6702 243.425 36.715C243.176 36.7599 242.938 36.8548 242.726 36.9942C242.515 37.1336 242.334 37.3141 242.194 37.5256C242.055 37.737 241.959 37.9749 241.914 38.2242C241.869 38.4735 241.875 38.7293 241.932 38.9762C241.989 39.2231 242.095 39.456 242.244 39.6606C243.216 41.1383 243.31 42.6756 242.87 43.584C242.686 43.95 242.628 44.3663 242.704 44.7687C242.779 45.1711 242.985 45.5374 243.289 45.8118V45.8118Z" fill="#00478F"/>
<path d="M243.159 45.6725C242.963 45.4554 242.82 45.195 242.742 44.9127C242.664 44.6303 242.654 44.3335 242.712 44.0464C242.77 43.7593 242.894 43.4899 243.075 43.2596C243.256 43.0293 243.489 42.845 243.754 42.7209C246.148 41.5618 249.004 42.0381 251.363 43.5895C251.579 43.7194 251.766 43.8917 251.914 44.0957C252.062 44.2998 252.167 44.5313 252.223 44.777C252.279 45.0226 252.284 45.2769 252.24 45.5249C252.195 45.7728 252.101 46.0092 251.963 46.2198C251.824 46.4305 251.645 46.6111 251.435 46.7507C251.226 46.8904 250.99 46.9863 250.742 47.0326C250.495 47.079 250.24 47.0751 249.994 47.0208C249.748 46.9664 249.516 46.8628 249.311 46.7165C247.833 45.7448 246.295 45.6512 245.387 46.091C245.021 46.2745 244.605 46.3329 244.203 46.2573C243.8 46.1816 243.434 45.9764 243.159 45.6725V45.6725Z" fill="#00478F"/>
<path fill-rule="evenodd" clip-rule="evenodd" d="M264.407 14.7074C264.034 14.7075 263.67 14.8193 263.361 15.0277C263.052 15.2361 262.812 15.5316 262.672 15.877C262.533 16.2225 262.499 16.6021 262.576 16.9667C262.653 17.3314 262.838 17.6647 263.105 17.9239L271.044 25.8629C271.217 26.0428 271.423 26.1865 271.652 26.2856C271.881 26.3846 272.127 26.4369 272.376 26.4395C272.625 26.4422 272.872 26.3952 273.103 26.3011C273.334 26.207 273.543 26.0679 273.719 25.8917C273.896 25.7155 274.035 25.5056 274.129 25.2749C274.223 25.0442 274.27 24.7971 274.267 24.548C274.265 24.2989 274.212 24.0529 274.113 23.8243C274.014 23.5956 273.871 23.389 273.691 23.2166L265.752 15.2776C265.577 15.0973 265.368 14.9538 265.137 14.8559C264.906 14.758 264.658 14.7074 264.407 14.7074V14.7074Z" fill="#FF5D00"/>
<path fill-rule="evenodd" clip-rule="evenodd" d="M245.385 12.6169C245.217 12.6182 245.05 12.6422 244.888 12.6882L243.083 13.1706L241.277 13.6531L239.464 14.1429C239.217 14.1979 238.984 14.3025 238.779 14.4499C238.574 14.5974 238.401 14.7848 238.27 15.001C238.139 15.2171 238.054 15.4572 238.018 15.7073C237.983 15.9575 237.999 16.2122 238.064 16.4562C238.13 16.7001 238.244 16.9283 238.401 17.1269C238.557 17.3254 238.752 17.4904 238.973 17.6117C239.195 17.7329 239.439 17.8078 239.69 17.8323C239.942 17.8568 240.195 17.8304 240.436 17.7542L242.242 17.2717L244.047 16.7892L245.86 16.3068C246.31 16.1994 246.703 15.9299 246.966 15.5497C247.228 15.1695 247.341 14.7057 247.282 14.2475C247.223 13.7894 246.997 13.3692 246.646 13.0678C246.296 12.7665 245.847 12.6051 245.385 12.6151V12.6169Z" fill="#00478F"/>
<path fill-rule="evenodd" clip-rule="evenodd" d="M245.444 12.6167C245.151 12.6101 244.86 12.6728 244.596 12.799C244.331 12.9252 244.1 13.1113 243.921 13.3432C243.742 13.575 243.62 13.8459 243.564 14.1336C243.509 14.4213 243.521 14.718 243.602 14.9999L244.566 18.6185L245.049 20.4241C245.178 20.904 245.492 21.3127 245.923 21.5609C246.353 21.809 246.865 21.8762 247.344 21.7473C247.824 21.6183 248.233 21.3042 248.481 20.8737C248.73 20.4432 248.797 19.9317 248.668 19.4519L248.185 17.6462L247.213 14.0349C247.114 13.6375 246.887 13.2836 246.567 13.0275C246.248 12.7713 245.853 12.627 245.444 12.6167V12.6167ZM274.378 41.6971C273.978 41.7178 273.596 41.8659 273.287 42.1198C272.978 42.3736 272.758 42.7202 272.66 43.108L272.178 44.9137L271.688 46.7193L271.205 48.5323C271.142 48.7699 271.126 49.0177 271.158 49.2615C271.191 49.5053 271.271 49.7404 271.394 49.9532C271.517 50.1661 271.681 50.3525 271.876 50.502C272.072 50.6514 272.294 50.7612 272.532 50.8245C272.77 50.8879 273.017 50.9035 273.261 50.8711C273.505 50.8387 273.74 50.7586 273.953 50.6354C274.166 50.5121 274.352 50.3482 274.502 50.1529C274.651 49.9576 274.761 49.7349 274.824 49.4972L275.306 47.6916L275.789 45.8859L276.271 44.073C276.352 43.7873 276.363 43.4866 276.304 43.1958C276.245 42.9049 276.118 42.6324 275.933 42.4003C275.748 42.1682 275.511 41.9834 275.24 41.8612C274.97 41.7389 274.674 41.6826 274.378 41.6971V41.6971Z" fill="#00478F"/>
<path fill-rule="evenodd" clip-rule="evenodd" d="M268.954 40.2277C268.502 40.2405 268.071 40.4158 267.739 40.7216C267.407 41.0274 267.196 41.443 267.147 41.8917C267.097 42.3404 267.211 42.792 267.468 43.1632C267.724 43.5345 268.107 43.8006 268.544 43.9121L270.35 44.3946L272.156 44.8844L273.969 45.3668C274.448 45.4948 274.959 45.427 275.389 45.1781C275.819 44.9293 276.132 44.5199 276.26 44.04C276.388 43.5602 276.32 43.0493 276.072 42.6195C275.823 42.1897 275.413 41.8762 274.934 41.7482L273.128 41.2658L271.315 40.7833L269.509 40.3008C269.329 40.2494 269.141 40.2252 268.954 40.2295V40.2277Z" fill="#00478F"/>
</svg>
