<svg width="48" height="48" viewBox="0 0 48 48" fill="none" xmlns="http://www.w3.org/2000/svg">
<path d="M43.25 21.75C43.8262 21.98 44.3775 25.5 42 25.5C34.5 25.5 28.25 39.25 17 39.25C5.75 39.25 3.25 23.625 3.25 20.5C3.25 17.375 9.275 8 18.25 8C27.225 8 37 19.25 43.25 21.75Z" fill="#D99E82"/>
<path d="M5.75 24.25C5.75 24.9412 4.91125 25.5 3.875 25.5C2.83875 25.5 2 24.9412 2 24.25C2 23.5588 2 21.75 3.875 23C4.73625 23.575 5.75 23.5588 5.75 24.25Z" fill="#D99E82"/>
<path d="M43.25 21.75C43.8262 21.98 44.345 22.6087 42 23C34.5 24.25 29.4437 21.88 18.25 23C5.75 24.25 3.25 24.25 3.25 20.5C3.25 17.375 9.275 7.99999 18.25 7.99999C27.225 7.99999 37 19.25 43.25 21.75Z" fill="#C1694F"/>
<path d="M39.5 22.375C39.5 25.4812 43.6788 28 45.75 28C47.8212 28 45.75 25.4812 45.75 22.375C45.75 19.2688 47.8212 16.75 45.75 16.75C43.6788 16.75 39.5 19.2688 39.5 22.375Z" fill="#D99E82"/>
<path d="M12 16.75C12 17.44 11.44 18 10.75 18C10.06 18 9.5 17.44 9.5 16.75C9.5 16.06 10.06 15.5 10.75 15.5C11.44 15.5 12 16.06 12 16.75Z" fill="#292F33"/>
<path d="M25.95 31.75C25.95 31.75 29.5 36.75 32 36.75C34.5 36.75 32 30.5 32 30.5H28.45C24.7 30.5 25.95 31.75 25.95 31.75Z" fill="#D99E82"/>
<path d="M28.6876 11.6538C28.6876 11.6538 32.2626 8.1325 34.4989 9.25C39.5926 11.795 31.9989 14.25 31.9989 14.25L30.0089 14.1175C26.2664 13.8675 28.6876 11.6538 28.6876 11.6538Z" fill="#C1694F"/>
<path d="M24.5 31.75C24.5 33.13 23.38 34.25 22 34.25C20.62 34.25 19.5 33.13 19.5 31.75C19.5 30.37 20.62 29.25 22 29.25C23.38 29.25 24.5 30.37 24.5 31.75Z" fill="#C1694F"/>
<path d="M28.25 26.75C28.25 27.4412 27.6912 28 27 28C26.3088 28 25.75 27.4412 25.75 26.75C25.75 26.0588 26.3088 25.5 27 25.5C27.6912 25.5 28.25 26.0588 28.25 26.75Z" fill="#C1694F"/>
<path d="M34.5 26.125C34.5 27.16 33.66 28 32.625 28C31.59 28 30.75 27.16 30.75 26.125C30.75 25.09 31.59 24.25 32.625 24.25C33.66 24.25 34.5 25.09 34.5 26.125Z" fill="#C1694F"/>
<path d="M24.5 18.625C24.5 19.6612 23.6612 20.5 22.625 20.5C21.5888 20.5 20.75 19.6612 20.75 18.625C20.75 17.5888 21.5888 16.75 22.625 16.75C23.6612 16.75 24.5 17.5888 24.5 18.625Z" fill="#662113"/>
<path d="M33.25 19.875C33.25 20.9112 32.41 21.75 31.375 21.75C30.34 21.75 29.5 20.9112 29.5 19.875C29.5 18.8388 30.34 18 31.375 18C32.41 18 33.25 18.8388 33.25 19.875Z" fill="#662113"/>
<path d="M28.25 14.25C28.25 14.94 27.6912 15.5 27 15.5C26.3088 15.5 25.75 14.94 25.75 14.25C25.75 13.56 26.3088 13 27 13C27.6912 13 28.25 13.56 28.25 14.25Z" fill="#662113"/>
<path d="M5.75 21.75C5.75 22.44 7 24.25 3.875 23C2.9125 22.615 2 22.44 2 21.75C2 21.06 2.83875 20.5 3.875 20.5C4.91125 20.5 5.75 21.06 5.75 21.75Z" fill="#C1694F"/>
</svg>
