<svg width="48" height="48" viewBox="0 0 48 48" fill="none" xmlns="http://www.w3.org/2000/svg">
<path d="M41.9799 26.6362C41.9799 25.3862 43.8837 18.8712 45.7887 16.9675C47.6912 15.0625 45.7887 13.01 43.8837 13.01C39.6274 13.01 32.4612 21.6362 32.4612 26.6362C32.4612 32.8862 39.6274 39.6662 43.8837 39.6662C45.7887 39.6662 47.6912 37.9112 45.7887 36.0062C43.8837 34.1037 41.9799 29.1362 41.9799 26.6362Z" fill="#3B88C3"/>
<path d="M13.0649 14.6162C13.0649 10.8087 14.9362 6.99999 16.8399 6.99999C22.5512 6.99999 33.4924 13.0287 35.3962 22.55C37.3012 32.0687 13.0649 14.6162 13.0649 14.6162Z" fill="#3B88C3"/>
<path d="M19.1338 37.4637C21.0375 39.3675 24.8463 41.2725 28.655 41.2725C32.4625 41.2725 24.7663 36.035 26.75 33.6575C29.4763 30.3862 19.1338 37.4637 19.1338 37.4637Z" fill="#3B88C3"/>
<path d="M4.37739 32.545C5.32864 29.6887 4.61489 27.6262 2.94864 25.565C1.28239 23.5012 7.78864 23.185 9.92989 26.0412C12.0724 28.8975 17.0711 33.8925 12.6286 33.8162C8.18489 33.735 4.37739 32.545 4.37739 32.545Z" fill="black"/>
<path d="M2 25.9962C3.19875 27.0887 11.0287 31.3825 10.9562 32.4175C10.8837 33.4525 8.1075 32.3075 7.075 32.0675C5.21875 31.6412 4.69375 31.3212 4.17875 31.41C3.12875 31.8112 3.48625 32.9112 3.87625 33.54C5.74875 36.8037 12.9838 39.3675 19.0763 39.3675C29.5912 39.3675 40.0787 29.8487 40.0787 26.04C40.0787 22.2325 28.3987 12.7112 17.8837 12.7112C7.3925 12.7112 2.01375 20.2887 2 25.9962Z" fill="#55ACEE"/>
<path d="M10.5388 17.8862C11.9188 17.8862 13.0388 19.0037 13.0388 20.3862C13.0388 21.7662 11.9188 22.8862 10.5388 22.8862C9.15757 22.8862 8.03882 21.7662 8.03882 20.3862C8.03882 19.0037 9.15757 17.8862 10.5388 17.8862Z" fill="black"/>
<path d="M20.6388 34.1112C20.4438 34.1112 20.2463 34.0662 20.0613 33.97C19.4488 33.65 19.2126 32.8937 19.5326 32.2825C21.5138 28.49 22.3051 25.0737 19.7251 20.7287C19.3726 20.135 19.5688 19.3687 20.1613 19.015C20.7551 18.6625 21.5226 18.86 21.8751 19.4512C25.2413 25.1212 23.7001 29.705 21.7476 33.44C21.5251 33.8675 21.0901 34.1112 20.6388 34.1112Z" fill="#226699"/>
</svg>
