<svg width="48" height="48" viewBox="0 0 48 48" fill="none" xmlns="http://www.w3.org/2000/svg">
<path d="M12.2898 13.5C19.7898 3.5 29.7898 0.999996 34.7898 0.999996C36.0398 0.999996 36.0398 2.25 34.7898 2.25C33.5398 2.25 27.2898 4.75 26.0398 13.5C24.7898 22.25 12.2898 13.5 12.2898 13.5Z" fill="#FFAC33"/>
<path d="M11.0398 36C16.0398 39.75 27.2898 46 33.5398 46C37.2898 46 36.0398 44.75 34.7898 44.75C33.5398 44.75 23.5398 41 22.2898 36C21.0398 31 11.0398 36 11.0398 36Z" fill="#FFAC33"/>
<path d="M38.2512 24.75C38.2512 30.2725 42.99 37.25 45.7512 37.25C48.5125 37.25 43.2512 30.2725 43.2512 24.75C43.2512 19.2275 48.5125 12.25 45.7512 12.25C42.99 12.25 38.2512 19.2275 38.2512 24.75Z" fill="#FFCC4D"/>
<path d="M39.7899 24.7925C39.7899 33.36 31.5511 40.305 22.9836 40.305C16.3661 40.305 8.40111 36.1987 5.11986 32.5487C4.15361 31.475 -0.28639 31.2562 3.59236 28.6712C-0.28639 26.085 4.04111 26.1562 4.82861 24.7925C7.90736 19.4637 12.6424 6.69374 22.9836 6.69374C33.3261 6.69374 39.7899 16.225 39.7899 24.7925Z" fill="#FFCC4D"/>
<path d="M25.7525 24.75C25.7375 24.75 25.725 24.75 25.71 24.7487C25.02 24.7263 24.4787 24.1487 24.5025 23.4588C24.8137 14.0338 33.62 10.0238 33.995 9.8575C34.6275 9.57375 35.3637 9.8625 35.6437 10.4938C35.9237 11.1238 35.64 11.8612 35.01 12.1425C34.6937 12.2837 27.26 15.705 27 23.5412C26.9775 24.2175 26.4225 24.75 25.7525 24.75Z" fill="#F4900C"/>
<path d="M32.0025 22.25C31.9212 22.25 31.8387 22.2425 31.7562 22.225C31.08 22.09 30.64 21.4313 30.7762 20.755C31.9237 15.0162 36.985 13.5 39.5012 13.5C40.1925 13.5 40.7512 14.06 40.7512 14.75C40.7512 15.4387 40.195 15.9975 39.5062 16C39.29 16.0013 34.255 16.1062 33.2262 21.245C33.1087 21.8387 32.5862 22.25 32.0025 22.25Z" fill="#F4900C"/>
<path d="M19.5012 27.25C18.8112 27.25 18.2512 26.6912 18.2512 26C18.2512 10.2525 31.5075 6.0925 31.6425 6.0525C32.3037 5.855 33 6.23 33.1987 6.89125C33.3962 7.5525 33.0212 8.24875 32.3612 8.4475C31.8525 8.60375 20.7512 12.175 20.7512 26C20.7512 26.6912 20.1912 27.25 19.5012 27.25Z" fill="#F4900C"/>
<path d="M15.7512 20.375C15.7512 21.4112 14.9125 22.25 13.8762 22.25C12.84 22.25 12.0012 21.4112 12.0012 20.375C12.0012 19.3388 12.84 18.5 13.8762 18.5C14.9125 18.5 15.7512 19.3388 15.7512 20.375Z" fill="#292F33"/>
</svg>
