<svg width="64" height="64" viewBox="0 0 64 64" fill="none" xmlns="http://www.w3.org/2000/svg">
<path d="M49 4.06V28.91C49 29.97 48.43 30.96 47.52 31.5L35.25 38.06H28.75L16.52 31.52C15.57 30.96 15 29.97 15 28.91V4.06H49Z" fill="#3867D6"/>
<path d="M49 4.06V28.91C49 29.97 48.43 30.96 47.52 31.5L39 36.06L35.25 38.06H28.75L25.53 36.34L25 36.06V4.06H49V4.06Z" fill="#2D98DA"/>
<path d="M49 4.06V28.91C49 29.97 48.43 30.96 47.52 31.5L39 36.06V4.06H49V4.06Z" fill="#3867D6"/>
<path d="M30.75 38.06H28.75L16.52 31.52C15.57 30.96 15 29.97 15 28.91V4.06H17V28.91C17 29.27 17.2 29.6 17.54 29.8L29.69 36.3C30.37 36.66 30.75 37.35 30.75 38.06Z" fill="#4B7BEC"/>
<path d="M49 4.06V28.91C49 29.97 48.43 30.96 47.52 31.5L39 36.06L35.25 38.06H33.25C33.25 37.35 33.63 36.66 34.31 36.3L46.58 29.74C46.8 29.6 47 29.26 47 28.91V4.06H49Z" fill="#206C9A"/>
<path d="M49 4.06V28.91C49 29.97 48.43 30.96 47.52 31.5L39 36.06V33.79L46.58 29.74C46.8 29.6 47 29.26 47 28.91V4.06H49Z" fill="#274896"/>
<path d="M30.75 38.06H28.75L25.53 36.34L25 36.06V33.79L29.69 36.3C30.37 36.66 30.75 37.35 30.75 38.06Z" fill="#45AAF2"/>
<path d="M52 5.06C52 6.71 50.65 8.06 49 8.06H15C14.66 8.06 14.33 8 14.02 7.89H14.01C13.48 7.7 13.02 7.37 12.68 6.94C12.46 6.68 12.29 6.37 12.1701 6.04C12.06 5.73 12 5.4 12 5.06C12 3.41 13.35 2.06 15 2.06H49C49.34 2.06 49.67 2.12 49.98 2.23C50.51 2.41 50.97 2.75 51.32 3.18C51.54 3.44 51.71 3.75 51.83 4.08C51.94 4.39 52 4.72 52 5.06Z" fill="#A5B1C2"/>
<path d="M49 2.06C49 3.16 48.1 4.06 47 4.06H15C14.46 4.06 14 4.52 14 5.06C14 5.92 13.45 6.66 12.68 6.94C12.46 6.68 12.29 6.37 12.1701 6.04C12.06 5.73 12 5.4 12 5.06C12 3.41 13.35 2.06 15 2.06H49V2.06Z" fill="#D1D8E0"/>
<path d="M52 5.06C52 6.71 50.65 8.06 49 8.06H15C14.66 8.06 14.33 8 14.02 7.89H14.01C14.1 6.87 14.96 6.06 16 6.06H49C49.54 6.06 50 5.6 50 5.06C50 4.2 50.55 3.46 51.32 3.18C51.54 3.44 51.71 3.75 51.83 4.08C51.94 4.39 52 4.72 52 5.06Z" fill="#6F7782"/>
<path d="M46.08 46.87L40.82 50.7C40.46 50.9599 40.32 51.41 40.45 51.82L42.46 58C42.88 59.26 42.45 60.58 41.36 61.35C40.85 61.73 40.24 61.94 39.61 61.94C38.99 61.94 38.38 61.74 37.84 61.35L32.59 57.53C32.42 57.41 32.21 57.34 32 57.34C31.79 57.34 31.58 57.41 31.4 57.53L30.66 58.07L26.16 61.35C25.66 61.71 25.1 61.91 24.5301 61.93C24.4801 61.94 24.4401 61.94 24.3901 61.94C23.7601 61.94 23.1501 61.73 22.6201 61.34C21.5501 60.58 21.1201 59.26 21.5401 58L23.5501 51.82C23.6801 51.41 23.5401 50.96 23.1801 50.7L17.9201 46.88C16.8501 46.09 16.4301 44.78 16.8401 43.53C17.2301 42.27 18.35 41.45 19.6901 41.45H26.1901C26.6301 41.45 27.0001 41.18 27.1401 40.76L28.4401 36.75L29.1501 34.58C29.3701 33.9 29.8001 33.34 30.3701 32.99C30.8401 32.68 31.4001 32.51 32.0001 32.51C32.6101 32.51 33.1701 32.68 33.6401 33C34.2001 33.35 34.6301 33.9 34.8501 34.59L35.5601 36.75L36.8601 40.76C37.0001 41.18 37.3701 41.45 37.8101 41.45H44.3101C45.6501 41.45 46.7701 42.2699 47.1601 43.54C47.57 44.78 47.15 46.09 46.08 46.87Z" fill="#A5B1C2"/>
<path d="M17.92 46.87L23.18 50.7C23.54 50.9599 23.68 51.41 23.55 51.82L21.54 58C21.12 59.26 21.55 60.58 22.64 61.35C23.15 61.73 23.76 61.94 24.39 61.94C25.01 61.94 25.62 61.74 26.16 61.35L31.41 57.53C31.58 57.41 31.79 57.34 32 57.34C32.21 57.34 32.42 57.41 32.6 57.53L33.3401 58.07C33.5001 57.5 33.4001 56.87 33.0301 56.35C32.3801 55.46 31.1201 55.26 30.2301 55.91L24.9801 59.73C24.61 60 24.17 60 23.83 59.75C23.43 59.46 23.3 59.06 23.44 58.63L25.45 52.44C25.85 51.2 25.42 49.85 24.36 49.08L19.09 45.26C18.74 44.99 18.5999 44.5799 18.74 44.17C18.88 43.7 19.23 43.45 19.69 43.45H26.19C27.49 43.45 28.64 42.62 29.04 41.38L31.05 35.21C31.32 34.38 31.02 33.5 30.36 33C29.8 33.35 29.37 33.9 29.15 34.59L28.44 36.75L27.14 40.76C27 41.18 26.63 41.45 26.19 41.45H19.69C18.35 41.45 17.23 42.2699 16.84 43.54C16.43 44.78 16.85 46.09 17.92 46.87Z" fill="#D1D8E0"/>
<path d="M32.95 35.2L34.96 41.38C35.36 42.62 36.51 43.45 37.81 43.45H44.31C44.77 43.45 45.12 43.7 45.25 44.13C45.4 44.58 45.27 44.99 44.89 45.27L39.64 49.08C38.58 49.85 38.15 51.2001 38.55 52.44L40.56 58.62C40.7 59.05 40.57 59.46 40.22 59.71C39.5 60.22 39.22 61.13 39.47 61.93C39.52 61.94 39.56 61.94 39.61 61.94C40.24 61.94 40.85 61.73 41.38 61.34C42.45 60.58 42.88 59.26 42.46 58L40.45 51.82C40.32 51.41 40.46 50.96 40.82 50.7L46.08 46.88C47.15 46.09 47.57 44.78 47.16 43.53C46.77 42.27 45.6501 41.45 44.31 41.45H37.81C37.37 41.45 37 41.18 36.86 40.76L35.56 36.75L34.85 34.58C34.63 33.9 34.2 33.34 33.63 32.99C32.98 33.5 32.68 34.37 32.95 35.2Z" fill="#6F7782"/>
</svg>
